<svg xmlns:xlink="http://www.w3.org/1999/xlink" xmlns="http://www.w3.org/2000/svg" viewBox="0 0 390 139.8856008019592" preserveAspectRatio="xMidYMid meet" class="css-88gl6m" id="beabgcfh" width="390"  height="139.8856008019592" ><defs id="SvgjsDefs3054"></defs><g id="SvgjsG3055" featurekey="xG21Y3-0" transform="matrix(33.64737412269668,0,0,33.64737412269668,-14.118439317821263,-4.19246138453482)" fill="#FFFFFF"><g xmlns="http://www.w3.org/2000/svg" fill="#FFFFFF"><g fill="#FFFFFF"><polygon fill="#FFFFFF" points="2.558,4.282 1.015,3.392 1.014,1.61 2.556,0.719 3.985,1.544 3.76,1.934 2.556,1.238 1.464,1.87     1.464,3.131 2.558,3.762 3.762,3.065 3.986,3.456   "></polygon></g><g fill="#FFFFFF"><polygon fill="#FFFFFF" points="2.557,3.464 1.829,3.045 2.054,2.654 2.557,2.944 2.946,2.719 2.946,2.268 2.557,2.043     2.054,2.333 1.829,1.944 2.556,1.523 3.396,2.008 3.396,2.979   "></polygon></g></g></g><g id="SvgjsG3056" featurekey="n48U4P-0" transform="matrix(4.257493099503829,0,0,4.257493099503829,136.59400470834458,28.35217973694181)" fill="#FFFFFF"><path d="M0.82 16.48 c0 2.8 3.54 3.52 5.7 3.52 c2.14 0 5.34 -0.7 5.34 -3.4 c0 -0.82 -0.24 -1.22 -0.72 -1.82 c-0.4 -0.52 -1 -0.9 -1.56 -1.18 c-0.42 -0.22 -0.88 -0.4 -1.34 -0.54 c-0.46 -0.16 -0.92 -0.28 -1.36 -0.44 c-0.24 -0.08 -0.54 -0.16 -0.86 -0.28 c-0.3 -0.1 -0.6 -0.2 -0.78 -0.3 c-0.1 -0.06 -0.2 -0.12 -0.28 -0.18 s-0.1 -0.12 -0.1 -0.18 c0 -0.16 0.16 -0.3 0.48 -0.42 c0.32 -0.1 0.68 -0.14 0.9 -0.14 c0.34 0 0.8 0.08 1.18 0.24 c0.38 0.18 0.62 0.42 0.62 0.74 l0 0.52 l3.64 -0.02 l0 -0.56 c0 -1.18 -0.64 -2.04 -1.6 -2.68 c-1.18 -0.76 -2.52 -1 -3.9 -1 c-2.16 0 -5.26 0.9 -5.26 3.54 c0 0.46 0.12 0.9 0.36 1.3 c0.2 0.32 0.46 0.68 0.78 0.94 c0.66 0.52 1.66 0.94 2.46 1.2 c0.42 0.14 0.88 0.24 1.3 0.4 c0.24 0.08 0.56 0.16 0.88 0.26 c0.32 0.12 0.6 0.22 0.82 0.32 c0.22 0.12 0.36 0.26 0.36 0.42 c0 0.18 -0.14 0.3 -0.5 0.4 c-0.32 0.08 -0.7 0.08 -0.92 0.08 c-0.5 0 -1.14 -0.06 -1.52 -0.28 c-0.12 -0.06 -0.24 -0.16 -0.34 -0.26 s-0.16 -0.18 -0.16 -0.26 l-0.02 -0.7 l-3.62 0 l0 0.08 c0.02 0.22 0.02 0.44 0.02 0.68 z M13.48 4.58 c0 5 -0.02 10.24 -0.02 15.24 l0 0.18 l3.24 0 l0 -5.92 c0 -1.44 1.26 -2.7 2.8 -2.7 c1.48 0 2.64 1.14 2.8 2.5 c0.02 0.2 0 0.42 0 0.62 l0.02 1.46 l0 4 l3.24 0.04 l0 -6.02 c0 -1.46 -0.74 -2.9 -1.8 -3.92 c-1.16 -1.12 -2.58 -1.72 -4.26 -1.72 c-1 0 -1.96 0.22 -2.84 0.66 l0 -4.6 l-3.18 0 l0 0.18 z M28.72 18.36 c1.14 1.22 2.68 1.64 4.36 1.64 c0.9 0 1.84 -0.14 2.68 -0.5 l0 0.5 l3.24 0 l0 -11.6 l-3.56 0 l0 5.6 c0 1.56 -0.66 2.58 -2.36 2.58 c-1.72 0 -2.34 -1.04 -2.34 -2.58 l0 -5.6 l-3.58 0 l0 5.78 c0 1.54 0.44 3 1.56 4.18 z M45.86 4.4 l0.98 0 l0 2.84 l-0.18 0.02 c-0.3 0.04 -0.76 0.04 -1.2 0.12 c-0.46 0.08 -0.86 0.16 -1.06 0.3 c-0.34 0.24 -0.54 0.7 -0.54 1.12 l0 3.5 l2.34 0 l0 2.82 l-2.34 0 l0 4.88 l-3.26 0 l0 -10.76 c0 -1.16 0.08 -3.08 1.26 -3.92 c1.04 -0.72 2.8 -0.92 4 -0.92 z M53.7 4.4 l0.98 0 l0 2.84 l-0.18 0.02 c-0.3 0.04 -0.76 0.04 -1.2 0.12 c-0.46 0.08 -0.86 0.16 -1.06 0.3 c-0.34 0.24 -0.54 0.7 -0.54 1.12 l0 3.5 l2.34 0 l0 2.82 l-2.34 0 l0 4.88 l-3.26 0 l0 -10.76 c0 -1.16 0.08 -3.08 1.26 -3.92 c1.04 -0.72 2.8 -0.92 4 -0.92 z M56.28 20.02 l3.24 0 l-0.04 -15.64 l-3.18 0 l0 0.2 z" fill="#FFFFFF"></path></g></svg>